<svg xmlns="http://www.w3.org/2000/svg" version="1.1" width="1200px" height="1200px" style="shape-rendering:geometricPrecision; text-rendering:geometricPrecision; image-rendering:optimizeQuality; fill-rule:evenodd; clip-rule:evenodd" xmlns:xlink="http://www.w3.org/1999/xlink">
<g><path style="opacity:0.987" fill="#a5d800" d="M 999.5,264.5 C 999.5,283.833 999.5,303.167 999.5,322.5C 960.81,338.576 925.476,359.91 893.5,386.5C 893.5,351.833 893.5,317.167 893.5,282.5C 927.54,269.16 962.874,263.16 999.5,264.5 Z"/></g>
<g><path style="opacity:0.967" fill="#9fd200" d="M 999.5,264.5 C 1049.04,266.464 1092.71,283.13 1130.5,314.5C 1086.15,302.921 1042.48,305.587 999.5,322.5C 999.5,303.167 999.5,283.833 999.5,264.5 Z"/></g>
<g><path style="opacity:0.994" fill="#abde00" d="M 893.5,282.5 C 893.5,317.167 893.5,351.833 893.5,386.5C 884.726,394.394 875.726,402.06 866.5,409.5C 861.372,411.904 856.705,415.071 852.5,419C 829.298,441.677 807.632,465.51 787.5,490.5C 787.5,441.167 787.5,391.833 787.5,342.5C 819.707,317.385 855.041,297.385 893.5,282.5 Z"/></g>
<g><path style="opacity:0.994" fill="#b1e400" d="M 787.5,342.5 C 787.5,391.833 787.5,441.167 787.5,490.5C 763.783,520.053 740.617,550.053 718,580.5C 717.517,581.448 717.351,582.448 717.5,583.5C 705.254,600.325 693.254,617.325 681.5,634.5C 681.5,570.5 681.5,506.5 681.5,442.5C 704.941,414.559 730.607,388.726 758.5,365C 768.042,357.285 777.709,349.785 787.5,342.5 Z"/></g>
<g><path style="opacity:0.997" fill="#c4f700" d="M 284.5,403.5 C 288.653,402.834 292.987,402.501 297.5,402.5C 345.162,403.267 392.829,403.767 440.5,404C 444.886,409.293 448.886,414.793 452.5,420.5C 452.5,493.5 452.5,566.5 452.5,639.5C 447.409,632.32 442.076,625.32 436.5,618.5C 436.34,616.847 435.674,615.514 434.5,614.5C 433.56,611.286 432.06,608.286 430,605.5C 382.245,539.647 334.745,473.647 287.5,407.5C 286.488,406.128 285.488,404.795 284.5,403.5 Z"/></g>
<g><path style="opacity:0.996" fill="#474747" d="M 284.5,403.5 C 285.488,404.795 286.488,406.128 287.5,407.5C 286.957,407.56 286.624,407.893 286.5,408.5C 288.705,411.577 290.372,414.91 291.5,418.5C 339.038,538.563 387.371,658.23 436.5,777.5C 436.5,795.833 436.5,814.167 436.5,832.5C 428.5,832.5 420.5,832.5 412.5,832.5C 370.206,727.269 327.539,622.269 284.5,517.5C 284.5,479.5 284.5,441.5 284.5,403.5 Z"/></g>
<g><path style="opacity:1" fill="#333333" d="M 866.5,409.5 C 866.5,410.167 866.5,410.833 866.5,411.5C 848.042,441.645 830.376,472.312 813.5,503.5C 801.803,522.551 790.47,541.885 779.5,561.5C 770.753,577.33 761.753,592.996 752.5,608.5C 743.167,624.833 733.833,641.167 724.5,657.5C 722.527,661.457 720.194,665.124 717.5,668.5C 717.5,640.167 717.5,611.833 717.5,583.5C 717.351,582.448 717.517,581.448 718,580.5C 740.617,550.053 763.783,520.053 787.5,490.5C 807.632,465.51 829.298,441.677 852.5,419C 856.705,415.071 861.372,411.904 866.5,409.5 Z"/></g>
<g><path style="opacity:1" fill="#333333" d="M 287.5,407.5 C 334.745,473.647 382.245,539.647 430,605.5C 432.06,608.286 433.56,611.286 434.5,614.5C 434.667,643.169 434.5,671.835 434,700.5C 386.71,606.252 339.21,512.252 291.5,418.5C 290.372,414.91 288.705,411.577 286.5,408.5C 286.624,407.893 286.957,407.56 287.5,407.5 Z"/></g>
<g><path style="opacity:1" fill="#3c3c3c" d="M 866.5,411.5 C 866.5,484.833 866.5,558.167 866.5,631.5C 848.833,588.833 831.167,546.167 813.5,503.5C 830.376,472.312 848.042,441.645 866.5,411.5 Z"/></g>
<g><path style="opacity:0.987" fill="#434343" d="M 291.5,418.5 C 339.21,512.252 386.71,606.252 434,700.5C 434.5,671.835 434.667,643.169 434.5,614.5C 435.674,615.514 436.34,616.847 436.5,618.5C 436.5,671.5 436.5,724.5 436.5,777.5C 387.371,658.23 339.038,538.563 291.5,418.5 Z"/></g>
<g><path style="opacity:0.992" fill="#bef100" d="M 452.5,420.5 C 488.548,465.586 523.881,511.253 558.5,557.5C 558.5,634.5 558.5,711.5 558.5,788.5C 522.933,739.047 487.6,689.38 452.5,639.5C 452.5,566.5 452.5,493.5 452.5,420.5 Z"/></g>
<g><path style="opacity:0.991" fill="#b8eb00" d="M 681.5,442.5 C 681.5,506.5 681.5,570.5 681.5,634.5C 643.764,692.313 608.764,751.979 576.5,813.5C 570.245,805.314 564.245,796.981 558.5,788.5C 558.5,711.5 558.5,634.5 558.5,557.5C 564.089,564.934 569.922,572.267 576,579.5C 607.797,531.239 642.964,485.572 681.5,442.5 Z"/></g>
<g><path style="opacity:1" fill="#414141" d="M 813.5,503.5 C 831.167,546.167 848.833,588.833 866.5,631.5C 866.5,678.5 866.5,725.5 866.5,772.5C 838.066,703.387 809.9,634.054 782,564.5C 781.623,563.058 780.79,562.058 779.5,561.5C 790.47,541.885 801.803,522.551 813.5,503.5 Z"/></g>
<g><path style="opacity:0.997" fill="#4d4d4d" d="M 284.5,517.5 C 327.539,622.269 370.206,727.269 412.5,832.5C 396.5,832.5 380.5,832.5 364.5,832.5C 338.01,767.015 311.343,701.682 284.5,636.5C 284.5,596.833 284.5,557.167 284.5,517.5 Z"/></g>
<g><path style="opacity:1" fill="#474747" d="M 779.5,561.5 C 780.79,562.058 781.623,563.058 782,564.5C 809.9,634.054 838.066,703.387 866.5,772.5C 866.5,792.5 866.5,812.5 866.5,832.5C 859.167,832.5 851.833,832.5 844.5,832.5C 815.104,759.151 785.604,685.817 756,612.5C 755.502,610.456 754.335,609.122 752.5,608.5C 761.753,592.996 770.753,577.33 779.5,561.5 Z"/></g>
<g><path style="opacity:1" fill="#4d4d4d" d="M 752.5,608.5 C 754.335,609.122 755.502,610.456 756,612.5C 785.604,685.817 815.104,759.151 844.5,832.5C 828.5,832.5 812.5,832.5 796.5,832.5C 773.318,774.631 749.984,716.798 726.5,659C 726.164,657.97 725.497,657.47 724.5,657.5C 733.833,641.167 743.167,624.833 752.5,608.5 Z"/></g>
<g><path style="opacity:0.994" fill="#545454" d="M 284.5,636.5 C 311.343,701.682 338.01,767.015 364.5,832.5C 352.167,832.5 339.833,832.5 327.5,832.5C 313.405,797.323 299.072,762.323 284.5,727.5C 284.5,697.167 284.5,666.833 284.5,636.5 Z"/></g>
<g><path style="opacity:1" fill="#545454" d="M 724.5,657.5 C 725.497,657.47 726.164,657.97 726.5,659C 749.984,716.798 773.318,774.631 796.5,832.5C 784.167,832.5 771.833,832.5 759.5,832.5C 746.013,797.539 732.013,762.873 717.5,728.5C 717.5,708.5 717.5,688.5 717.5,668.5C 720.194,665.124 722.527,661.457 724.5,657.5 Z"/></g>
<g><path style="opacity:0.986" fill="#5a5a5a" d="M 284.5,727.5 C 299.072,762.323 313.405,797.323 327.5,832.5C 313.167,832.5 298.833,832.5 284.5,832.5C 284.5,797.5 284.5,762.5 284.5,727.5 Z"/></g>
<g><path style="opacity:1" fill="#5a5a5a" d="M 717.5,728.5 C 732.013,762.873 746.013,797.539 759.5,832.5C 745.5,832.5 731.5,832.5 717.5,832.5C 717.5,797.833 717.5,763.167 717.5,728.5 Z"/></g>
</svg>